<?xml version="1.0" standalone="no"?>
<!DOCTYPE svg PUBLIC "-//W3C//DTD SVG 20010904//EN"
 "http://www.w3.org/TR/2001/REC-SVG-20010904/DTD/svg10.dtd">
<svg version="1.0" xmlns="http://www.w3.org/2000/svg"
 width="270.000000pt" height="270.000000pt" viewBox="0 0 270.000000 270.000000"
 preserveAspectRatio="xMidYMid meet">
<metadata>
Created by potrace 1.11, written by Peter Selinger 2001-2013
</metadata>
<g transform="translate(0.000000,270.000000) scale(0.100000,-0.100000)"
fill="#000000" stroke="none">
<path d="M2009 2106 c-2 -3 -18 -7 -34 -10 -70 -13 -561 -128 -575 -135 -8 -4
-39 -41 -68 -82 -78 -110 -76 -107 -148 -209 -180 -255 -166 -228 -279 -537
-58 -158 -111 -292 -119 -298 -27 -21 -90 -71 -116 -92 l-27 -23 -94 40 c-51
22 -96 44 -100 48 -4 4 6 86 22 182 16 96 29 179 29 185 0 5 -28 -21 -62 -57
l-63 -67 -183 1 c-101 0 -186 -2 -188 -5 -2 -2 49 -38 114 -80 113 -73 122
-81 227 -214 60 -76 117 -145 126 -153 14 -13 130 -15 930 -15 l914 1 145 48
c154 51 162 56 166 83 1 10 7 52 13 93 7 41 14 93 16 115 3 22 7 54 9 70 3 17
8 53 12 80 3 28 8 59 10 70 2 11 7 47 10 81 6 58 2 75 -86 340 -50 153 -97
284 -103 291 -12 11 -171 101 -362 204 -83 44 -123 57 -136 45z"/>
</g>
</svg>
