<?xml version="1.0" standalone="no"?>
<!DOCTYPE svg PUBLIC "-//W3C//DTD SVG 20010904//EN"
 "http://www.w3.org/TR/2001/REC-SVG-20010904/DTD/svg10.dtd">
<svg version="1.0" xmlns="http://www.w3.org/2000/svg"
 width="270.000000pt" height="270.000000pt" viewBox="0 0 270.000000 270.000000"
 preserveAspectRatio="xMidYMid meet">
<metadata>
Created by potrace 1.11, written by Peter Selinger 2001-2013
</metadata>
<g transform="translate(0.000000,270.000000) scale(0.100000,-0.100000)"
fill="#000000" stroke="none">
<path d="M593 2006 c-71 -26 -154 -87 -198 -143 -48 -61 -60 -70 -101 -78
-120 -22 -228 -118 -252 -224 -10 -44 -4 -154 10 -196 20 -61 47 -59 114 8
105 107 185 162 252 173 43 7 49 2 107 -95 79 -133 220 -289 325 -359 30 -20
57 -39 60 -42 15 -15 156 -77 229 -100 l85 -27 23 -74 c13 -41 25 -87 28 -104
14 -73 51 -73 135 4 36 32 79 78 95 100 27 40 30 42 69 36 80 -11 340 -5 383
10 18 6 29 -20 43 -105 7 -41 18 -81 23 -87 24 -31 79 -3 159 81 44 46 66 83
83 141 11 36 19 43 91 79 259 131 396 492 269 712 -30 52 -86 101 -142 126
-164 72 -428 46 -729 -72 -43 -17 -83 -33 -89 -34 -5 -2 -21 -8 -35 -13 -146
-61 -402 -156 -442 -164 -64 -14 -154 -4 -246 27 -124 41 -292 137 -292 166 0
20 86 95 158 138 97 57 104 85 29 116 -70 28 -171 28 -244 0z m1978 -445 c24
-1 26 -4 24 -48 -5 -130 -69 -271 -165 -363 -81 -78 -269 -152 -445 -175 -110
-15 -219 -21 -309 -18 -54 1 -101 4 -102 6 -2 1 4 23 12 47 9 25 16 79 17 121
l2 75 45 -8 c25 -5 75 -9 113 -9 105 -1 121 12 240 195 41 63 63 86 102 107
63 35 148 58 245 66 41 3 76 7 78 8 1 1 28 1 60 -1 31 -1 69 -3 83 -3z"/>
</g>
</svg>
