<?xml version="1.0" encoding="utf-8"?>
<!-- Generator: Adobe Illustrator 16.0.4, SVG Export Plug-In . SVG Version: 6.00 Build 0)  -->
<!DOCTYPE svg PUBLIC "-//W3C//DTD SVG 1.1//EN" "http://www.w3.org/Graphics/SVG/1.1/DTD/svg11.dtd">
<svg version="1.1" id="Layer_1" xmlns="http://www.w3.org/2000/svg" xmlns:xlink="http://www.w3.org/1999/xlink" x="0px" y="0px"
	 width="1200px" height="422.896px" viewBox="0 0 1200 422.896" enable-background="new 0 0 1200 422.896" xml:space="preserve">
<rect y="122.896" fill="#3C6D79" width="1200" height="300"/>
<g>
	<g>
		<path fill="#44737F" d="M728.374,362.046c0,0.016-0.043,0.123-0.447,0.123c-21.207,0-38.095-19.061-38.095-40.264
			c0-0.396,0.14-2.971,0.149-2.971h-9.535c0.02,0,0.119,3.029,0.119,3.434c0,21.199-17.259,39.584-38.456,39.584
			c-21.217,0-38.464-18.945-38.464-40.154c0-0.398,0.104-2.863,0.119-2.863h-9.865c0.012,0,0.121,3.029,0.121,3.434
			c0,21.199-17.253,39.584-38.461,39.584c-21.208,0-38.461-18.945-38.461-40.154c0-0.398,0.105-2.863,0.117-2.863h-9.082
			c0.012,0,0.06,3.029,0.06,3.434c-0.005,20.805-16.6,39.008-36.569,39.678v9.613c19.969-0.48,34.299-12.018,41.379-28.439
			c7.226,16.76,23.535,28.52,42.911,28.52c19.375,0,35.869-11.76,43.095-28.52c7.225,16.76,23.811,28.52,43.191,28.52
			c19.375,0,35.99-11.76,43.227-28.52c7.217,16.76,23.146,28.52,42.522,28.52c0.397,0,0.422-0.053,0.422-0.064v-9.629H728.374z"/>
		<path fill="#44737F" d="M728.374,301.457c0,0.02-0.043,0.127-0.447,0.127c-21.207,0-38.095-18.719-38.095-39.929
			c0-0.398,0.088-2.632,0.1-2.632h-9.485c0.02,0,0.119,2.691,0.119,3.09c0,21.208-17.259,39.419-38.456,39.419
			c-21.217,0-38.464-18.693-38.464-39.899c0-0.396,0.104-2.609,0.119-2.609h-9.865c0.012,0,0.121,2.691,0.121,3.09
			c0,21.208-17.253,39.419-38.461,39.419c-21.208,0-38.461-18.693-38.461-39.899c0-0.396,0.105-2.609,0.117-2.609h-9.082
			c0.012,0,0.06,2.691,0.06,3.09c-0.005,20.813-16.6,38.677-36.569,39.344v9.613c19.969-0.475,34.299-12.02,41.379-28.436
			c7.226,16.761,23.535,28.518,42.911,28.518c19.375,0,35.869-11.757,43.095-28.518c7.225,16.761,23.811,28.518,43.191,28.518
			c19.375,0,35.99-11.757,43.227-28.518c7.217,16.761,23.146,28.518,42.522,28.518c0.397,0,0.422-0.052,0.422-0.065v-9.63H728.374z"
			/>
	</g>
	<g>
		<path fill="#44737F" d="M985.128,362.046c0,0.016-0.047,0.123-0.449,0.123c-21.209,0-38.096-19.061-38.096-40.264
			c0-0.396,0.141-2.971,0.148-2.971h-9.534c0.02,0,0.12,3.029,0.12,3.434c0,21.199-17.26,39.584-38.456,39.584
			c-21.217,0-38.465-18.945-38.465-40.154c0-0.398,0.104-2.863,0.12-2.863h-9.866c0.011,0,0.12,3.029,0.12,3.434
			c0,21.199-17.252,39.584-38.46,39.584c-21.207,0-38.462-18.945-38.462-40.154c0-0.398,0.105-2.863,0.118-2.863h-9.082
			c0.013,0,0.062,3.029,0.062,3.434c-0.006,20.805-16.601,39.008-36.572,39.678v9.613c19.972-0.48,34.301-12.018,41.382-28.439
			c7.227,16.76,23.534,28.52,42.91,28.52c19.378,0,35.869-11.76,43.095-28.52c7.223,16.76,23.811,28.52,43.192,28.52
			c19.372,0,35.989-11.76,43.224-28.52c7.221,16.76,23.147,28.52,42.523,28.52c0.397,0,0.424-0.053,0.424-0.064v-9.629H985.128z"/>
		<path fill="#44737F" d="M985.128,301.457c0,0.02-0.047,0.127-0.449,0.127c-21.209,0-38.096-18.719-38.096-39.929
			c0-0.398,0.087-2.632,0.1-2.632h-9.485c0.02,0,0.12,2.691,0.12,3.09c0,21.208-17.26,39.419-38.456,39.419
			c-21.217,0-38.465-18.693-38.465-39.899c0-0.396,0.104-2.609,0.12-2.609h-9.866c0.011,0,0.12,2.691,0.12,3.09
			c0,21.208-17.252,39.419-38.46,39.419c-21.207,0-38.462-18.693-38.462-39.899c0-0.396,0.105-2.609,0.118-2.609h-9.082
			c0.013,0,0.062,2.691,0.062,3.09c-0.006,20.813-16.601,38.677-36.572,39.344v9.613c19.972-0.475,34.301-12.02,41.382-28.436
			c7.227,16.761,23.534,28.518,42.91,28.518c19.378,0,35.869-11.757,43.095-28.518c7.223,16.761,23.811,28.518,43.192,28.518
			c19.372,0,35.989-11.757,43.224-28.518c7.221,16.761,23.147,28.518,42.523,28.518c0.397,0,0.424-0.052,0.424-0.065v-9.63H985.128z
			"/>
	</g>
	<g>
		<path fill="#44737F" d="M1241.878,362.046c0,0.016-0.047,0.123-0.447,0.123c-21.209,0-38.096-19.061-38.096-40.264
			c0-0.396,0.139-2.971,0.147-2.971h-9.535c0.021,0,0.12,3.029,0.12,3.434c0,21.199-17.257,39.584-38.455,39.584
			c-21.216,0-38.465-18.945-38.465-40.154c0-0.398,0.104-2.863,0.122-2.863h-9.866c0.01,0,0.119,3.029,0.119,3.434
			c0,21.199-17.252,39.584-38.461,39.584c-21.207,0-38.461-18.945-38.461-40.154c0-0.398,0.105-2.863,0.117-2.863h-9.08
			c0.013,0,0.06,3.029,0.06,3.434c-0.006,20.805-16.602,39.008-36.569,39.678v9.613c19.968-0.48,34.299-12.018,41.379-28.439
			c7.228,16.76,23.535,28.52,42.91,28.52c19.377,0,35.869-11.76,43.096-28.52c7.225,16.76,23.81,28.52,43.191,28.52
			c19.374,0,35.99-11.76,43.226-28.52c7.216,16.76,23.146,28.52,42.523,28.52c0.397,0,0.423-0.053,0.423-0.064v-9.629H1241.878z"/>
		<path fill="#44737F" d="M1241.878,301.457c0,0.02-0.047,0.127-0.447,0.127c-21.209,0-38.096-18.719-38.096-39.929
			c0-0.398,0.087-2.632,0.1-2.632h-9.487c0.021,0,0.12,2.691,0.12,3.09c0,21.208-17.257,39.419-38.455,39.419
			c-21.216,0-38.465-18.693-38.465-39.899c0-0.396,0.104-2.609,0.122-2.609h-9.866c0.01,0,0.119,2.691,0.119,3.09
			c0,21.208-17.252,39.419-38.461,39.419c-21.207,0-38.461-18.693-38.461-39.899c0-0.396,0.105-2.609,0.117-2.609h-9.08
			c0.013,0,0.06,2.691,0.06,3.09c-0.006,20.813-16.602,38.677-36.569,39.344v9.613c19.968-0.475,34.299-12.02,41.379-28.436
			c7.228,16.761,23.535,28.518,42.91,28.518c19.377,0,35.869-11.757,43.096-28.518c7.225,16.761,23.81,28.518,43.191,28.518
			c19.374,0,35.99-11.757,43.226-28.518c7.216,16.761,23.146,28.518,42.523,28.518c0.397,0,0.423-0.052,0.423-0.065v-9.63H1241.878z
			"/>
	</g>
	<g>
		<path fill="#44737F" d="M214.874,362.046c0,0.016-0.046,0.123-0.448,0.123c-21.208,0-38.097-19.061-38.097-40.264
			c0-0.396,0.141-2.971,0.149-2.971h-9.535c0.021,0,0.121,3.029,0.121,3.434c0,21.199-17.26,39.584-38.456,39.584
			c-21.216,0-38.464-18.945-38.464-40.154c0-0.398,0.103-2.863,0.119-2.863h-9.864c0.011,0,0.119,3.029,0.119,3.434
			c0,21.199-17.253,39.584-38.461,39.584c-21.208,0-38.461-18.945-38.461-40.154c0-0.398,0.105-2.863,0.117-2.863h-9.081
			c0.012,0,0.061,3.029,0.061,3.434c-0.006,20.805-16.602,39.008-36.571,39.678v9.613c19.969-0.48,34.3-12.018,41.379-28.439
			c7.227,16.76,23.536,28.52,42.912,28.52c19.376,0,35.869-11.76,43.094-28.52c7.224,16.76,23.81,28.52,43.191,28.52
			c19.374,0,35.99-11.76,43.226-28.52c7.218,16.76,23.147,28.52,42.523,28.52c0.396,0,0.423-0.053,0.423-0.064v-9.629H214.874z"/>
		<path fill="#44737F" d="M214.874,301.457c0,0.02-0.046,0.127-0.448,0.127c-21.208,0-38.097-18.719-38.097-39.929
			c0-0.398,0.088-2.632,0.1-2.632h-9.486c0.021,0,0.121,2.691,0.121,3.09c0,21.208-17.26,39.419-38.456,39.419
			c-21.216,0-38.464-18.693-38.464-39.899c0-0.396,0.103-2.609,0.119-2.609h-9.864c0.011,0,0.119,2.691,0.119,3.09
			c0,21.208-17.253,39.419-38.461,39.419c-21.208,0-38.461-18.693-38.461-39.899c0-0.396,0.105-2.609,0.117-2.609h-9.081
			c0.012,0,0.061,2.691,0.061,3.09c-0.006,20.813-16.602,38.677-36.571,39.344v9.613c19.969-0.475,34.3-12.02,41.379-28.436
			c7.227,16.761,23.536,28.518,42.912,28.518c19.376,0,35.869-11.757,43.094-28.518c7.224,16.761,23.81,28.518,43.191,28.518
			c19.374,0,35.99-11.757,43.226-28.518c7.218,16.761,23.147,28.518,42.523,28.518c0.396,0,0.423-0.052,0.423-0.065v-9.63H214.874z"
			/>
	</g>
	<g>
		<path fill="#44737F" d="M471.625,362.046c0,0.016-0.046,0.123-0.449,0.123c-21.208,0-38.096-19.061-38.096-40.264
			c0-0.396,0.14-2.971,0.149-2.971h-9.535c0.021,0,0.12,3.029,0.12,3.434c0,21.199-17.259,39.584-38.455,39.584
			c-21.216,0-38.464-18.945-38.464-40.154c0-0.398,0.103-2.863,0.119-2.863h-9.865c0.012,0,0.12,3.029,0.12,3.434
			c0,21.199-17.253,39.584-38.462,39.584c-21.208,0-38.46-18.945-38.46-40.154c0-0.398,0.105-2.863,0.117-2.863h-9.082
			c0.012,0,0.061,3.029,0.061,3.434c-0.006,20.805-16.601,39.008-36.57,39.678v9.613c19.969-0.48,34.3-12.018,41.379-28.439
			c7.226,16.76,23.535,28.52,42.912,28.52c19.376,0,35.868-11.76,43.094-28.52c7.223,16.76,23.809,28.52,43.191,28.52
			c19.374,0,35.991-11.76,43.226-28.52c7.217,16.76,23.147,28.52,42.524,28.52c0.396,0,0.422-0.053,0.422-0.064v-9.629H471.625z"/>
		<path fill="#44737F" d="M471.625,301.457c0,0.02-0.046,0.127-0.449,0.127c-21.208,0-38.096-18.719-38.096-39.929
			c0-0.398,0.088-2.632,0.1-2.632h-9.486c0.021,0,0.12,2.691,0.12,3.09c0,21.208-17.259,39.419-38.455,39.419
			c-21.216,0-38.464-18.693-38.464-39.899c0-0.396,0.103-2.609,0.119-2.609h-9.865c0.012,0,0.12,2.691,0.12,3.09
			c0,21.208-17.253,39.419-38.462,39.419c-21.208,0-38.46-18.693-38.46-39.899c0-0.396,0.105-2.609,0.117-2.609h-9.082
			c0.012,0,0.061,2.691,0.061,3.09c-0.006,20.813-16.601,38.677-36.57,39.344v9.613c19.969-0.475,34.3-12.02,41.379-28.436
			c7.226,16.761,23.535,28.518,42.912,28.518c19.376,0,35.868-11.757,43.094-28.518c7.223,16.761,23.809,28.518,43.191,28.518
			c19.374,0,35.991-11.757,43.226-28.518c7.217,16.761,23.147,28.518,42.524,28.518c0.396,0,0.422-0.052,0.422-0.065v-9.63H471.625z
			"/>
	</g>
</g>
<g>
	<path fill="#326572" d="M3.712,259.023c-0.011,0-0.117,2.214-0.117,2.609c0,21.206,17.253,39.899,38.461,39.899
		c21.208,0,38.461-18.211,38.461-39.419c0-0.398-0.108-3.09-0.119-3.09h9.864c-0.016,0-0.119,2.214-0.119,2.609
		c0,21.206,17.248,39.899,38.464,39.899c21.196,0,38.456-18.211,38.456-39.419c0-0.398-0.1-3.09-0.121-3.09h9.486
		c-0.012,0-0.1,2.233-0.1,2.632c0,21.21,16.889,39.929,38.097,39.929c0.38,0,0.44-0.094,0.445-0.121v-0.006h0.003
		c19.969-0.667,36.564-18.53,36.57-39.344c0-0.398-0.049-3.09-0.061-3.09h9.082c-0.012,0-0.117,2.214-0.117,2.609
		c0,21.206,17.253,39.899,38.46,39.899c21.209,0,38.462-18.211,38.462-39.419c0-0.398-0.108-3.09-0.12-3.09h9.865
		c-0.016,0-0.119,2.214-0.119,2.609c0,21.206,17.248,39.899,38.464,39.899c21.196,0,38.455-18.211,38.455-39.419
		c0-0.398-0.099-3.09-0.12-3.09h9.486c-0.012,0-0.1,2.233-0.1,2.632c0,21.21,16.888,39.929,38.096,39.929
		c0.381,0,0.44-0.094,0.446-0.121v-0.006h0.003c19.969-0.667,36.564-18.53,36.569-39.344c0-0.398-0.048-3.09-0.06-3.09h9.082
		c-0.012,0-0.117,2.214-0.117,2.609c0,21.206,17.253,39.899,38.461,39.899c21.208,0,38.461-18.211,38.461-39.419
		c0-0.398-0.109-3.09-0.121-3.09h9.865c-0.015,0-0.119,2.214-0.119,2.609c0,21.206,17.247,39.899,38.464,39.899
		c21.197,0,38.456-18.211,38.456-39.419c0-0.398-0.1-3.09-0.119-3.09h9.485c-0.012,0-0.1,2.233-0.1,2.632
		c0,21.21,16.888,39.929,38.095,39.929c0.389,0,0.441-0.098,0.445-0.123v-0.004h0.002c19.972-0.667,36.566-18.53,36.572-39.344
		c0-0.398-0.049-3.09-0.062-3.09h9.082c-0.013,0-0.118,2.214-0.118,2.609c0,21.206,17.255,39.899,38.462,39.899
		c21.208,0,38.46-18.211,38.46-39.419c0-0.398-0.109-3.09-0.12-3.09h9.866c-0.016,0-0.12,2.214-0.12,2.609
		c0,21.206,17.248,39.899,38.465,39.899c21.196,0,38.456-18.211,38.456-39.419c0-0.398-0.101-3.09-0.12-3.09h9.485
		c-0.013,0-0.1,2.233-0.1,2.632c0,21.21,16.887,39.929,38.096,39.929c0.373,0,0.438-0.09,0.445-0.119v-0.008h0.004
		c19.968-0.667,36.563-18.53,36.569-39.344c0-0.398-0.047-3.09-0.06-3.09h9.08c-0.012,0-0.117,2.214-0.117,2.609
		c0,21.206,17.254,39.899,38.461,39.899c21.209,0,38.461-18.211,38.461-39.419c0-0.398-0.109-3.09-0.119-3.09h9.866
		c-0.018,0-0.122,2.214-0.122,2.609c0,21.206,17.249,39.899,38.465,39.899c21.198,0,38.455-18.211,38.455-39.419
		c0-0.398-0.1-3.09-0.12-3.09h9.487c-0.013,0-0.1,2.233-0.1,2.632c0,1.11,0.057,2.211,0.147,3.306V122.896H0v136.128H3.712z"/>
</g>
<rect x="-82.375" y="-77.996" fill="#326572" width="1367.932" height="265.487"/>
</svg>
