<?xml version="1.0" encoding="utf-8"?>
<!-- Generator: Adobe Illustrator 19.0.0, SVG Export Plug-In . SVG Version: 6.00 Build 0)  -->
<svg version="1.1" id="Layer_1" xmlns="http://www.w3.org/2000/svg" xmlns:xlink="http://www.w3.org/1999/xlink" x="0px" y="0px"
	 viewBox="-75.9 127.6 36.9 19.4" style="enable-background:new -75.9 127.6 36.9 19.4;" xml:space="preserve">
<style type="text/css">
	.st0{display:none;}
	.st1{display:inline;stroke:#000000;stroke-width:2;stroke-miterlimit:10;}
	.st2{fill:#2196F3;}
</style>
<g class="st0">
	<rect x="-232.2" y="-756.1" class="st1" width="1220.2" height="969.9"/>
</g>
<g>
	<circle class="st2" cx="-52.2" cy="135.5" r="0.8"/>
	<path class="st2" d="M-39.9,134c0-0.1,0-0.2-0.1-0.3c-0.1-0.6-0.3-1.1-0.6-1.6c-1.2-1.7-3-2.3-6.4-1.9c-2.2,0.2-5.3,1.5-8.3,2.6
		c-1.4,0.6-2.7,1.1-3.9,1.5c-3.2,1.1-7.4-2-7.4-2c0,0,0,0,0,0c-0.3-0.2-0.3-0.3-0.3-0.4c0-0.6,1.5-1.7,2.9-2.4
		c0.2-0.1,0.3-0.3,0.3-0.4c0-0.2-0.1-0.4-0.3-0.4c-3.2-1.6-5.9,0.9-7,2.6c-1.8,0.3-3,1-3.6,2.1c-1,1.8-0.2,3.9-0.2,3.9
		c0.1,0.2,0.2,0.3,0.4,0.3c0.2,0,0.3,0,0.5-0.2c2.3-2.5,3.6-2.9,4.2-2.9c0.3,0,0.5,0.1,0.5,0.1c3.1,5.7,6.9,7.5,10.1,8.2
		c0.3,1,0.6,2.1,0.8,2.8c0,0.2,0.2,0.3,0.3,0.4c0.1,0,0.1,0,0.2,0c0.1,0,0.2,0,0.3-0.1c1.2-0.9,2-1.8,2.5-2.6c0.1,0,0.2,0,0.3,0
		c0.8,0.1,1.5,0.1,2.3,0.1c1.1,0,2.3-0.1,3.4-0.2c0.1,0.5,0.4,1.7,0.5,2.3c0,0.2,0.1,0.3,0.3,0.4c0.1,0,0.2,0.1,0.2,0.1
		c0.1,0,0.2,0,0.3-0.1c0.1-0.1,2.5-1.5,2.7-3.7c2.6-1,3.7-2.3,4.6-4.3C-39.9,136.8-39.7,135.3-39.9,134z M-57.7,144.8
		c-0.1-0.4-0.3-1-0.5-1.7c-0.1-0.4-0.2-0.7-0.4-1.1c-0.3-0.8-0.6-1.4-0.9-1.8c-0.2-0.2-0.5-0.2-0.7,0c-0.2,0.2-0.2,0.5,0,0.7
		c0.1,0.2,0.3,0.5,0.5,0.8c-2.9-0.8-6.1-2.6-8.8-7.7c0-0.1-0.4-0.5-1.2-0.5c0,0,0,0-0.1,0c-1.2,0-2.6,0.9-4.3,2.6
		c-0.1-0.6-0.1-1.5,0.3-2.3c0.5-0.9,1.6-1.5,3.1-1.7c0.2,0,0.3-0.1,0.4-0.2c0.1-0.2,2-3.3,4.8-2.8c-1,0.6-2.4,1.6-2.4,2.7
		c0,0.4,0.1,0.9,0.8,1.3c0.4,0.3,4.7,3.3,8.3,2.1c1.2-0.4,2.5-0.9,3.9-1.5c2.8-1.1,5.9-2.4,8-2.6c3.5-0.4,4.7,0.3,5.5,1.5
		c0.1,0.2,0.2,0.4,0.3,0.7c-1.9-0.1-6.7-0.1-8.3,2.4c-0.3,0.5-0.6,0.9-0.8,1.3c-0.9,1.5-1,1.7-4.5,1c-0.2,0-0.4,0-0.5,0.2
		s-0.2,0.3-0.1,0.5c0,0,0.6,1.7-0.4,3.7c-0.2,0.3-0.3,0.6-0.6,1C-56.6,143.8-57.1,144.3-57.7,144.8z M-47.8,144.8
		c-0.1-0.6-0.3-1.2-0.4-1.6c0.7-0.1,1.3-0.3,1.9-0.4C-46.5,143.6-47.2,144.4-47.8,144.8z M-41.5,137.7c-0.8,1.7-1.7,2.8-3.8,3.7
		c-0.1,0-0.2,0.1-0.3,0.1c-0.2,0.1-0.4,0.2-0.7,0.2c-0.5,0.2-1.1,0.3-1.7,0.4c-0.4,0.1-0.7,0.1-1.1,0.2c-1.8,0.3-3.8,0.3-5.6,0.1
		c0.6-1.4,0.6-2.6,0.5-3.3c3.3,0.6,3.8,0.3,4.9-1.6c0.2-0.3,0.4-0.7,0.7-1.2c1.5-2.2,6.3-2,7.8-1.9
		C-40.7,135.5-40.9,136.6-41.5,137.7z"/>
</g>
</svg>
