<?xml version="1.0" encoding="utf-8"?>
<!-- Generator: Adobe Illustrator 16.0.4, SVG Export Plug-In . SVG Version: 6.00 Build 0)  -->
<!DOCTYPE svg PUBLIC "-//W3C//DTD SVG 1.1//EN" "http://www.w3.org/Graphics/SVG/1.1/DTD/svg11.dtd">
<svg version="1.1" id="Layer_1" xmlns="http://www.w3.org/2000/svg" xmlns:xlink="http://www.w3.org/1999/xlink" x="0px" y="0px"
	 width="382.48px" height="385.357px" viewBox="174.1 168.143 382.48 385.357"
	 enable-background="new 174.1 168.143 382.48 385.357" xml:space="preserve">
<circle opacity="0.5" fill="#71B6C6" cx="365.339" cy="360.82" r="155.684"/>
<g id="Layer_2" display="none">
	
		<polygon display="inline" fill="none" stroke="#662222" stroke-linecap="square" stroke-linejoin="round" stroke-miterlimit="10" points="
		120.942,398.908 146.106,371.654 133.518,451.051 176.781,469.958 211.063,442.702 255.9,319.705 336.479,205.129 476.119,172.536 
		574.968,226.5 615.981,350 615.981,497.214 142.5,497.214 90.255,432.143 39.5,398.908 	"/>
</g>
<g id="Layer_1_1_">
	<g>
		<polygon fill="#326572" points="220.309,420.222 273.149,443.314 252.215,459.959 		"/>
		<path fill="#326572" d="M252.215,460.267c-0.09,0-0.178-0.04-0.239-0.114l-31.906-39.741c-0.088-0.107-0.09-0.264-0.004-0.376
			c0.086-0.112,0.236-0.149,0.365-0.095l52.84,23.095c0.099,0.044,0.167,0.135,0.181,0.24c0.014,0.107-0.029,0.213-0.112,0.279
			l-20.936,16.644C252.348,460.244,252.281,460.267,252.215,460.267z M221.324,420.998l30.938,38.534l20.3-16.141L221.324,420.998z"
			/>
	</g>
	<g>
		<polygon fill="#6D919A" points="246.729,431.77 254.417,383.281 220.309,420.222 		"/>
		<path fill="#6D919A" d="M246.729,432.073c-0.042,0-0.083-0.009-0.123-0.024l-26.421-11.548c-0.09-0.039-0.156-0.121-0.176-0.218
			s0.008-0.197,0.074-0.27l34.108-36.939c0.092-0.099,0.237-0.123,0.357-0.068c0.121,0.06,0.189,0.191,0.168,0.323l-7.688,48.486
			c-0.015,0.095-0.072,0.176-0.155,0.22C246.83,432.062,246.779,432.073,246.729,432.073z M220.824,420.112l25.665,11.218
			l7.468-47.102L220.824,420.112z"/>
	</g>
	<g>
		<polygon fill="#58818C" points="239.048,399.925 189.312,399.925 220.309,420.222 		"/>
		<path fill="#58818C" d="M220.308,420.527c-0.058,0-0.116-0.018-0.167-0.051l-30.996-20.294c-0.113-0.075-0.164-0.216-0.125-0.346
			c0.039-0.127,0.157-0.218,0.292-0.218h49.736c0.122,0,0.231,0.073,0.28,0.183c0.049,0.112,0.026,0.242-0.055,0.33l-18.741,20.297
			C220.474,420.492,220.391,420.527,220.308,420.527z M190.336,400.23l29.923,19.594l18.092-19.594H190.336z"/>
	</g>
	<g>
		<polygon fill="#43727E" points="252.215,459.959 294.085,426.671 373.131,459.959 		"/>
		<path fill="#43727E" d="M373.143,460.267c-0.003,0-0.007,0-0.012,0H252.215c-0.13,0-0.246-0.084-0.289-0.207
			s-0.003-0.259,0.098-0.338l41.871-33.291c0.088-0.067,0.207-0.083,0.309-0.041l79.009,33.272c0.134,0.033,0.234,0.154,0.234,0.297
			C373.447,460.128,373.311,460.267,373.143,460.267z M253.089,459.653H371.62l-77.487-32.631L253.089,459.653z"/>
	</g>
	<g>
		<polygon fill="#58818C" points="373.131,459.959 321.467,351.557 294.085,426.671 		"/>
		<path fill="#58818C" d="M373.131,460.267c-0.039,0-0.08-0.009-0.118-0.024l-79.046-33.29c-0.15-0.064-0.224-0.233-0.168-0.387
			l27.381-75.112c0.042-0.116,0.149-0.195,0.273-0.2c0.131-0.004,0.237,0.062,0.29,0.174l51.666,108.402
			c0.054,0.114,0.032,0.251-0.056,0.341C373.294,460.231,373.213,460.267,373.131,460.267z M294.472,426.501l78.039,32.866
			l-51.006-107.021L294.472,426.501z"/>
	</g>
	<g>
		<polygon fill="#43727E" points="373.131,459.959 438.475,383.281 321.467,351.557 		"/>
		<path fill="#43727E" d="M373.131,460.267c-0.013,0-0.026-0.002-0.039-0.005c-0.103-0.013-0.191-0.076-0.236-0.171l-51.665-108.402
			c-0.051-0.108-0.035-0.235,0.042-0.328c0.077-0.092,0.199-0.129,0.314-0.099l117.01,31.725c0.1,0.026,0.18,0.105,0.211,0.204
			c0.03,0.102,0.009,0.209-0.06,0.288l-65.344,76.681C373.305,460.227,373.22,460.267,373.131,460.267z M322.029,352.024
			l51.176,107.379l64.726-75.953L322.029,352.024z"/>
	</g>
	<g>
		<polygon fill="#326572" points="370.675,281.586 438.475,383.281 321.467,351.557 		"/>
		<path fill="#326572" d="M438.475,383.586c-0.026,0-0.053-0.002-0.079-0.011l-117.008-31.725c-0.096-0.026-0.174-0.097-0.208-0.191
			c-0.033-0.092-0.02-0.197,0.037-0.278l49.209-69.971c0.057-0.082,0.146-0.148,0.253-0.129c0.102,0.001,0.195,0.052,0.251,0.136
			l67.763,101.64c0.062,0.055,0.099,0.137,0.099,0.225c0,0.171-0.15,0.316-0.31,0.305
			C438.479,383.586,438.479,383.586,438.475,383.586z M321.967,351.376l115.803,31.397l-67.102-100.646L321.967,351.376z"/>
	</g>
	<g>
		<polygon fill="#326572" points="490.385,459.959 438.475,383.281 373.131,459.959 		"/>
		<path fill="#326572" d="M490.385,460.267H373.131c-0.118,0-0.228-0.07-0.276-0.178c-0.051-0.108-0.033-0.235,0.045-0.325
			l65.344-76.681c0.062-0.072,0.166-0.105,0.249-0.105c0.096,0.005,0.183,0.055,0.236,0.132l51.91,76.681
			c0.062,0.092,0.069,0.213,0.016,0.313C490.602,460.203,490.498,460.267,490.385,460.267z M373.793,459.653H489.81l-51.362-75.867
			L373.793,459.653z"/>
	</g>
	<g>
		<polygon fill="#43727E" points="438.475,383.281 541.366,370.057 490.385,459.959 		"/>
		<path fill="#43727E" d="M490.385,460.267c-0.101,0-0.196-0.053-0.253-0.137l-51.908-76.678c-0.06-0.088-0.069-0.2-0.025-0.297
			c0.043-0.097,0.133-0.162,0.238-0.176l102.891-13.227c0.114-0.013,0.229,0.038,0.292,0.135c0.066,0.094,0.069,0.22,0.014,0.32
			L490.65,460.11c-0.052,0.093-0.147,0.149-0.254,0.154C490.392,460.265,490.389,460.267,490.385,460.267z M439.007,383.521
			l51.355,75.86l50.438-88.944L439.007,383.521z"/>
	</g>
	<g>
		<polygon fill="#6D919A" points="530.69,446.699 490.385,459.959 541.366,370.057 		"/>
		<path fill="#6D919A" d="M490.385,460.267c-0.089,0-0.177-0.042-0.236-0.112c-0.079-0.099-0.092-0.235-0.03-0.345l50.983-89.902
			c0.071-0.128,0.226-0.187,0.362-0.139c0.14,0.046,0.225,0.185,0.205,0.332l-10.676,76.641c-0.016,0.116-0.096,0.211-0.207,0.248
			l-40.306,13.262C490.448,460.26,490.416,460.267,490.385,460.267z M540.844,371.6l-49.804,87.823l39.375-12.954L540.844,371.6z"/>
	</g>
	<g>
		<polygon fill="#6D919A" points="438.475,383.281 516.319,294.637 541.366,370.057 		"/>
		<path fill="#6D919A" d="M438.475,383.586c-0.11,0-0.215-0.061-0.269-0.16c-0.06-0.112-0.044-0.25,0.04-0.345l77.843-88.646
			c0.074-0.082,0.184-0.12,0.291-0.098s0.195,0.1,0.229,0.203l25.046,75.419c0.03,0.088,0.019,0.183-0.029,0.259
			c-0.05,0.08-0.13,0.13-0.221,0.141l-102.89,13.225C438.501,383.586,438.489,383.586,438.475,383.586z M516.198,295.239
			l-76.96,87.638l101.722-13.075L516.198,295.239z"/>
	</g>
	<g>
		<polygon fill="#58818C" points="516.319,294.637 370.675,281.586 438.475,383.281 		"/>
		<path fill="#58818C" d="M438.475,383.586c-0.006,0-0.013,0-0.02,0c-0.095-0.006-0.181-0.057-0.234-0.136l-67.8-101.695
			c-0.064-0.098-0.067-0.224-0.009-0.325c0.061-0.101,0.174-0.158,0.29-0.148l145.645,13.051c0.115,0.01,0.214,0.084,0.256,0.191
			c0.044,0.106,0.021,0.228-0.054,0.314l-77.845,88.645C438.647,383.549,438.562,383.586,438.475,383.586z M371.283,281.947
			l67.226,100.835l77.185-87.894L371.283,281.947z"/>
	</g>
	<g>
		<polygon fill="#43727E" points="516.319,294.637 455.953,261.682 370.675,281.586 		"/>
		<path fill="#43727E" d="M516.319,294.942c-0.01,0-0.018,0-0.027-0.001L370.648,281.89c-0.149-0.013-0.267-0.133-0.276-0.283
			c-0.012-0.149,0.089-0.285,0.233-0.318l85.278-19.904c0.071-0.018,0.149-0.007,0.216,0.029l60.365,32.955
			c0.128,0.07,0.189,0.219,0.146,0.357C516.572,294.855,516.453,294.942,516.319,294.942z M372.596,281.452l142.289,12.75
			l-58.977-32.196L372.596,281.452z"/>
	</g>
</g>
<g id="Layer_1_2_">
	<g>
		<polygon fill="#326572" points="220.309,420.222 273.149,443.314 252.215,459.959 		"/>
		<path fill="#326572" d="M252.215,460.267c-0.09,0-0.178-0.04-0.239-0.114l-31.906-39.741c-0.088-0.107-0.09-0.264-0.004-0.376
			c0.086-0.112,0.236-0.149,0.365-0.095l52.84,23.095c0.099,0.044,0.167,0.135,0.181,0.24c0.014,0.107-0.029,0.213-0.112,0.279
			l-20.936,16.644C252.348,460.244,252.281,460.267,252.215,460.267z M221.324,420.998l30.938,38.534l20.3-16.141L221.324,420.998z"
			/>
	</g>
	<g>
		<polygon fill="#6D919A" points="246.729,431.77 254.417,383.281 220.309,420.222 		"/>
		<path fill="#6D919A" d="M246.729,432.073c-0.042,0-0.083-0.009-0.123-0.024l-26.421-11.548c-0.09-0.039-0.156-0.121-0.176-0.218
			s0.008-0.197,0.074-0.27l34.108-36.939c0.092-0.099,0.237-0.123,0.357-0.068c0.121,0.06,0.189,0.191,0.168,0.323l-7.688,48.486
			c-0.015,0.095-0.072,0.176-0.155,0.22C246.83,432.062,246.779,432.073,246.729,432.073z M220.824,420.112l25.665,11.218
			l7.468-47.102L220.824,420.112z"/>
	</g>
	<g>
		<polygon fill="#58818C" points="239.048,399.925 189.312,399.925 220.309,420.222 		"/>
		<path fill="#58818C" d="M220.308,420.527c-0.058,0-0.116-0.018-0.167-0.051l-30.996-20.294c-0.113-0.075-0.164-0.216-0.125-0.346
			c0.039-0.127,0.157-0.218,0.292-0.218h49.736c0.122,0,0.231,0.073,0.28,0.183c0.049,0.112,0.026,0.242-0.055,0.33l-18.741,20.297
			C220.474,420.492,220.391,420.527,220.308,420.527z M190.336,400.23l29.923,19.594l18.092-19.594H190.336z"/>
	</g>
	<g>
		<polygon fill="#43727E" points="252.215,459.959 294.085,426.671 373.131,459.959 		"/>
		<path fill="#43727E" d="M373.143,460.267c-0.003,0-0.007,0-0.012,0H252.215c-0.13,0-0.246-0.084-0.289-0.207
			s-0.003-0.259,0.098-0.338l41.871-33.291c0.088-0.067,0.207-0.083,0.309-0.041l79.009,33.272c0.134,0.033,0.234,0.154,0.234,0.297
			C373.447,460.128,373.311,460.267,373.143,460.267z M253.089,459.653H371.62l-77.487-32.631L253.089,459.653z"/>
	</g>
	<g>
		<polygon fill="#58818C" points="373.131,459.959 321.467,351.557 294.085,426.671 		"/>
		<path fill="#58818C" d="M373.131,460.267c-0.039,0-0.08-0.009-0.118-0.024l-79.046-33.29c-0.15-0.064-0.224-0.233-0.168-0.387
			l27.381-75.112c0.042-0.116,0.149-0.195,0.273-0.2c0.131-0.004,0.237,0.062,0.29,0.174l51.666,108.402
			c0.054,0.114,0.032,0.251-0.056,0.341C373.294,460.231,373.213,460.267,373.131,460.267z M294.472,426.501l78.039,32.866
			l-51.006-107.021L294.472,426.501z"/>
	</g>
	<g>
		<polygon fill="#43727E" points="373.131,459.959 438.475,383.281 321.467,351.557 		"/>
		<path fill="#43727E" d="M373.131,460.267c-0.013,0-0.026-0.002-0.039-0.005c-0.103-0.013-0.191-0.076-0.236-0.171l-51.665-108.402
			c-0.051-0.108-0.035-0.235,0.042-0.328c0.077-0.092,0.199-0.129,0.314-0.099l117.01,31.725c0.1,0.026,0.18,0.105,0.211,0.204
			c0.03,0.102,0.009,0.209-0.06,0.288l-65.344,76.681C373.305,460.227,373.22,460.267,373.131,460.267z M322.029,352.024
			l51.176,107.379l64.726-75.953L322.029,352.024z"/>
	</g>
	<g>
		<polygon fill="#326572" points="370.675,281.586 438.475,383.281 321.467,351.557 		"/>
		<path fill="#326572" d="M438.475,383.586c-0.026,0-0.053-0.002-0.079-0.011l-117.008-31.725c-0.096-0.026-0.174-0.097-0.208-0.191
			c-0.033-0.092-0.02-0.197,0.037-0.278l49.209-69.971c0.057-0.082,0.146-0.148,0.253-0.129c0.102,0.001,0.195,0.052,0.251,0.136
			l67.763,101.64c0.062,0.055,0.099,0.137,0.099,0.225c0,0.171-0.15,0.316-0.31,0.305
			C438.479,383.586,438.479,383.586,438.475,383.586z M321.967,351.376l115.803,31.397l-67.102-100.646L321.967,351.376z"/>
	</g>
	<g>
		<polygon fill="#326572" points="490.385,459.959 438.475,383.281 373.131,459.959 		"/>
		<path fill="#326572" d="M490.385,460.267H373.131c-0.118,0-0.228-0.07-0.276-0.178c-0.051-0.108-0.033-0.235,0.045-0.325
			l65.344-76.681c0.062-0.072,0.166-0.105,0.249-0.105c0.096,0.005,0.183,0.055,0.236,0.132l51.91,76.681
			c0.062,0.092,0.069,0.213,0.016,0.313C490.602,460.203,490.498,460.267,490.385,460.267z M373.793,459.653H489.81l-51.362-75.867
			L373.793,459.653z"/>
	</g>
	<g>
		<polygon fill="#43727E" points="438.475,383.281 541.366,370.057 490.385,459.959 		"/>
		<path fill="#43727E" d="M490.385,460.267c-0.101,0-0.196-0.053-0.253-0.137l-51.908-76.678c-0.06-0.088-0.069-0.2-0.025-0.297
			c0.043-0.097,0.133-0.162,0.238-0.176l102.891-13.227c0.114-0.013,0.229,0.038,0.292,0.135c0.066,0.094,0.069,0.22,0.014,0.32
			L490.65,460.11c-0.052,0.093-0.147,0.149-0.254,0.154C490.392,460.265,490.389,460.267,490.385,460.267z M439.007,383.521
			l51.355,75.86l50.438-88.944L439.007,383.521z"/>
	</g>
	<g>
		<polygon fill="#6D919A" points="530.69,446.699 490.385,459.959 541.366,370.057 		"/>
		<path fill="#6D919A" d="M490.385,460.267c-0.089,0-0.177-0.042-0.236-0.112c-0.079-0.099-0.092-0.235-0.03-0.345l50.983-89.902
			c0.071-0.128,0.226-0.187,0.362-0.139c0.14,0.046,0.225,0.185,0.205,0.332l-10.676,76.641c-0.016,0.116-0.096,0.211-0.207,0.248
			l-40.306,13.262C490.448,460.26,490.416,460.267,490.385,460.267z M540.844,371.6l-49.804,87.823l39.375-12.954L540.844,371.6z"/>
	</g>
	<g>
		<polygon fill="#6D919A" points="438.475,383.281 516.319,294.637 541.366,370.057 		"/>
		<path fill="#6D919A" d="M438.475,383.586c-0.11,0-0.215-0.061-0.269-0.16c-0.06-0.112-0.044-0.25,0.04-0.345l77.843-88.646
			c0.074-0.082,0.184-0.12,0.291-0.098s0.195,0.1,0.229,0.203l25.046,75.419c0.03,0.088,0.019,0.183-0.029,0.259
			c-0.05,0.08-0.13,0.13-0.221,0.141l-102.89,13.225C438.501,383.586,438.489,383.586,438.475,383.586z M516.198,295.239
			l-76.96,87.638l101.722-13.075L516.198,295.239z"/>
	</g>
	<g>
		<polygon fill="#58818C" points="516.319,294.637 370.675,281.586 438.475,383.281 		"/>
		<path fill="#58818C" d="M438.475,383.586c-0.006,0-0.013,0-0.02,0c-0.095-0.006-0.181-0.057-0.234-0.136l-67.8-101.695
			c-0.064-0.098-0.067-0.224-0.009-0.325c0.061-0.101,0.174-0.158,0.29-0.148l145.645,13.051c0.115,0.01,0.214,0.084,0.256,0.191
			c0.044,0.106,0.021,0.228-0.054,0.314l-77.845,88.645C438.647,383.549,438.562,383.586,438.475,383.586z M371.283,281.947
			l67.226,100.835l77.185-87.894L371.283,281.947z"/>
	</g>
	<g>
		<polygon fill="#43727E" points="516.319,294.637 455.953,261.682 370.675,281.586 		"/>
		<path fill="#43727E" d="M516.319,294.942c-0.01,0-0.018,0-0.027-0.001L370.648,281.89c-0.149-0.013-0.267-0.133-0.276-0.283
			c-0.012-0.149,0.089-0.285,0.233-0.318l85.278-19.904c0.071-0.018,0.149-0.007,0.216,0.029l60.365,32.955
			c0.128,0.07,0.189,0.219,0.146,0.357C516.572,294.855,516.453,294.942,516.319,294.942z M372.596,281.452l142.289,12.75
			l-58.977-32.196L372.596,281.452z"/>
	</g>
</g>
</svg>
