<?xml version="1.0" encoding="utf-8"?>
<!-- Generator: Adobe Illustrator 19.0.0, SVG Export Plug-In . SVG Version: 6.00 Build 0)  -->
<svg version="1.1" id="Layer_1" xmlns="http://www.w3.org/2000/svg" xmlns:xlink="http://www.w3.org/1999/xlink" x="0px" y="0px"
	 viewBox="-461 271.6 36.9 19.4" style="enable-background:new -461 271.6 36.9 19.4;" xml:space="preserve">
<style type="text/css">
	.st0{display:none;}
	.st1{display:inline;stroke:#000000;stroke-width:2;stroke-miterlimit:10;}
	.st2{fill:#FFFFFF;}
</style>
<g class="st0">
	<rect x="-925.2" y="-231.3" class="st1" width="1220.2" height="969.9"/>
</g>
<path class="st2" d="M-424.7,278.2c0-0.1,0-0.2-0.1-0.3c-0.1-0.6-0.3-1.1-0.7-1.6c-1.2-1.7-3.1-2.3-6.5-1.9
	c-2.3,0.2-5.4,1.5-8.4,2.7c-1.4,0.6-2.8,1.1-3.9,1.5c-3.2,1.1-7.5-2-7.5-2c-0.3-0.2-0.3-0.3-0.3-0.4c0-0.6,1.5-1.7,2.9-2.4
	c0.2-0.1,0.3-0.3,0.3-0.5s-0.1-0.4-0.3-0.5c-3.3-1.6-6,0.9-7.1,2.6c-1.8,0.3-3,1-3.7,2.2c-1,1.8-0.2,3.9-0.2,4
	c0.1,0.2,0.2,0.3,0.4,0.3s0.3,0,0.5-0.2c2.3-2.6,3.6-3,4.2-3c0.3,0,0.5,0.1,0.5,0.1c3.1,5.7,7,7.6,10.2,8.3c0.3,1,0.6,2.1,0.8,2.9
	c0,0.2,0.2,0.3,0.3,0.4c0.1,0,0.1,0,0.2,0s0.2,0,0.3-0.1c1.2-0.9,2-1.8,2.5-2.7c0.1,0,0.2,0,0.3,0c0.8,0.1,1.6,0.1,2.4,0.1
	c1.1,0,2.3-0.1,3.4-0.2c0.1,0.5,0.4,1.7,0.5,2.4c0,0.2,0.1,0.3,0.3,0.4c0.1,0,0.2,0.1,0.2,0.1c0.1,0,0.2,0,0.3-0.1
	c0.1-0.1,2.5-1.5,2.8-3.7c2.6-1,3.7-2.3,4.7-4.3C-424.7,281-424.5,279.5-424.7,278.2z M-437.1,278.9c0.4,0,0.8,0.4,0.8,0.8
	s-0.4,0.8-0.8,0.8s-0.8-0.4-0.8-0.8S-437.5,278.9-437.1,278.9z M-426.3,281.9c-0.8,1.7-1.7,2.8-3.9,3.7c-0.1,0-0.2,0.1-0.3,0.1
	c-0.2,0.1-0.4,0.2-0.7,0.2c-0.5,0.2-1.1,0.3-1.8,0.4c-0.4,0.1-0.7,0.1-1.1,0.2c-1.9,0.3-3.9,0.3-5.7,0.1c0.6-1.4,0.6-2.6,0.5-3.4
	c3.3,0.6,3.9,0.3,4.9-1.6c0.2-0.3,0.4-0.8,0.7-1.2c1.5-2.2,6.4-2.1,7.8-1.9C-425.6,279.6-425.8,280.8-426.3,281.9z"/>
</svg>
