<?xml version="1.0" encoding="utf-8"?>
<!-- Generator: Adobe Illustrator 19.0.0, SVG Export Plug-In . SVG Version: 6.00 Build 0)  -->
<svg version="1.1" id="Layer_1" xmlns="http://www.w3.org/2000/svg" xmlns:xlink="http://www.w3.org/1999/xlink" x="0px" y="0px"
	 viewBox="-116 126.6 36.9 19.4" style="enable-background:new -116 126.6 36.9 19.4;" xml:space="preserve">
<style type="text/css">
	.st0{display:none;}
	.st1{display:inline;stroke:#000000;stroke-width:2;stroke-miterlimit:10;}
	.st2{fill:#2196F3;}
	.st3{fill:#FFFFFF;}
</style>
<g class="st0">
	<rect x="-464.2" y="-502.9" class="st1" width="1220.2" height="969.9"/>
</g>
<g id="XMLID_7_">
	<path id="XMLID_8_" class="st2" d="M-79.7,133c0-0.1,0-0.2-0.1-0.3c-0.1-0.6-0.3-1.1-0.7-1.6c-1.2-1.7-3.1-2.3-6.5-1.9
		c-2.3,0.2-5.4,1.5-8.4,2.7c-1.4,0.6-2.8,1.1-3.9,1.5c-3.2,1.1-7.5-2-7.5-2c0,0,0,0,0,0c-0.3-0.2-0.3-0.3-0.3-0.4
		c0-0.6,1.5-1.7,2.9-2.4c0.2-0.1,0.3-0.3,0.3-0.5c0-0.2-0.1-0.4-0.3-0.5c-3.3-1.6-6,0.9-7.1,2.6c-1.8,0.3-3,1-3.7,2.2
		c-1,1.8-0.2,3.9-0.2,4c0.1,0.2,0.2,0.3,0.4,0.3c0.2,0,0.3,0,0.5-0.2c2.3-2.6,3.6-3,4.2-3c0.3,0,0.5,0.1,0.5,0.1
		c3.1,5.7,7,7.6,10.2,8.3c0.3,1,0.6,2.1,0.8,2.9c0,0.2,0.2,0.3,0.3,0.4c0.1,0,0.1,0,0.2,0c0.1,0,0.2,0,0.3-0.1
		c1.2-0.9,2-1.8,2.5-2.7c0.1,0,0.2,0,0.3,0c0.8,0.1,1.6,0.1,2.4,0.1c1.1,0,2.3-0.1,3.4-0.2c0.1,0.5,0.4,1.7,0.5,2.4
		c0,0.2,0.1,0.3,0.3,0.4c0.1,0,0.2,0.1,0.2,0.1c0.1,0,0.2,0,0.3-0.1c0.1-0.1,2.5-1.5,2.8-3.7c2.6-1,3.7-2.3,4.7-4.3
		C-79.7,135.8-79.5,134.3-79.7,133z M-81.3,136.7c-0.8,1.7-1.7,2.8-3.9,3.7c-0.1,0-0.2,0.1-0.3,0.1c-0.2,0.1-0.4,0.2-0.7,0.2
		c-0.5,0.2-1.1,0.3-1.8,0.4c-0.4,0.1-0.7,0.1-1.1,0.2c-1.9,0.3-3.9,0.3-5.7,0.1c0.6-1.4,0.6-2.6,0.5-3.4c3.3,0.6,3.9,0.3,4.9-1.6
		c0.2-0.3,0.4-0.8,0.7-1.2c1.5-2.2,6.4-2.1,7.8-1.9C-80.6,134.4-80.8,135.6-81.3,136.7z"/>
</g>
<circle id="XMLID_5_" class="st3" cx="-92.1" cy="134.5" r="0.8"/>
</svg>
